<?xml version="1.0" encoding="UTF-8"?>
<svg xmlns="http://www.w3.org/2000/svg" version="1.1" viewBox="0 0 42 42">
  <defs>
    <style>
      .cls-1 {
        fill: #010101;
      }

      .cls-2 {
        fill: #fff;
      }

      .cls-3 {
        fill: #fdd517;
      }
    </style>
  </defs>
  <!-- Generator: Adobe Illustrator 28.7.1, SVG Export Plug-In . SVG Version: 1.2.0 Build 142)  -->
  <g>
    <g id="Layer_1">
      <g id="TELEGRAM">
        <path class="cls-2" d="M8.11,34.52c1.73,5.82,10.76,3.8,15.48,3.8,5.87,0,10.45.12,12.76-1.51,3.04-2.15,2.78-6.22,2.78-10.54,0-9.55,1.66-12.04-1.27-16.21-2.52-3.59-7.66-2.91-13.28-2.97-5.87-.06-9.87-.37-12,.54-5.16,2.19-5.25,6.64-5.25,11.66,0,5.33-.95,9.4.79,15.23h0Z"/>
        <path class="cls-3" d="M6.01,32.46c1.73,5.82,10.76,3.8,15.48,3.8,5.87,0,10.45.12,12.76-1.51,3.04-2.15,2.78-6.22,2.78-10.54,0-9.55,1.66-12.04-1.27-16.21-2.52-3.59-7.66-2.91-13.28-2.97-5.87-.06-9.87-.37-12,.54-5.16,2.19-5.25,6.64-5.25,11.66,0,5.33-.95,9.4.79,15.23h0Z"/>
        <path class="cls-2" d="M32.3,12.32c-.99,4.71-2.78,14.61-3.49,16.97-.47,1.56-1.9,1.99-3.33,1.02-2.91-1.95-8.4-5.61-8.4-5.61l-2.06-1.97s-5.25-.61-6.69-1.14c-1.62-.6-1.19-2.5,0-3.11,4.59-2.39,16.92-6.76,20.69-8.18,1.84-.69,3.72-.06,3.28,2.02Z"/>
        <path class="cls-2" d="M28.11,14.41l-13.09,8.31,2.03,6.95.57-4.89s10.54-9.47,10.97-9.88c.43-.4-.49-.49-.49-.49h.01Z"/>
        <path class="cls-2" d="M17.69,24.89l-.61,5.36c.45.27,3.18-3.23,3.18-3.23l-2.57-2.13Z"/>
        <path d="M39.52,30.3l-.09-3.12c-.05-1.63-.1-3.27-.15-4.9-.06-1.62-.1-3.24-.11-4.86,0-1.16.04-2.34.09-3.48.04-.89.08-1.78.09-2.66.03-1.83-.04-3.48-1.08-5.05-1.07-1.61-2.81-2.78-4.66-3.13-1.04-.2-2.13-.18-3.19-.17-.42,0-.83,0-1.23,0h-.59c-1.76-.04-3.58-.08-5.36-.16-.75-.04-1.5-.1-2.24-.17-1.15-.1-2.33-.21-3.52-.2-1.54,0-3.09.12-4.59.22l-1.71.11c-1.81.11-3.68.22-5.31,1.45-1.56,1.17-2.52,3.03-2.63,5.08-.2,3.56-.21,7.19-.23,10.75,0,.97-.02,1.94-.04,2.91-.02.89,0,1.77,0,2.66.02.97.03,1.97,0,2.95,0,.3-.03.6-.04.9-.06,1.21-.12,2.45.06,3.66.28,1.8,1.43,3.51,3.16,4.7,1.73,1.19,3.55,1.27,5.47,1.35,1.88.08,3.86.12,6.06.14,1.07,0,2.15.03,3.23.05,1.29.02,2.59.05,3.91.05,1.57,0,3.15-.04,4.7-.15.35-.03.71-.06,1.06-.09.57-.05,1.15-.11,1.72-.13.6-.02,1.29-.06,2-.26,1.88-.55,3.47-1.79,4.36-3.4.87-1.57.89-3.35.84-5.04h.02ZM36.92,9.84c.02,3.75.06,7.77.21,11.83.06,1.56.12,3.63.07,5.7-.03,1.24-.13,2.5-.22,3.72l-.09,1.22c-.09,1.28-.71,2.44-1.74,3.27-1.19.95-2.5,1.07-4.09,1.13-.81.03-1.63.04-2.44.05-1.08,0-2.2.03-3.31.09-1.45.08-2.94.03-4.38,0-.58-.02-1.16-.04-1.74-.05-1.1-.02-2.19-.02-3.29-.03-.93,0-1.87,0-2.8-.02h-.95c-1.48.02-2.99.03-4.2-.61-1.53-.8-2.62-2.22-2.77-3.64-.14-1.22-.09-2.52-.05-3.77l.03-.88c.03-.92.06-1.83.1-2.75.03-.87.07-1.75.1-2.63.05-1.57.05-3.14.06-4.71,0-1.29.01-2.58.04-3.87.01-.48,0-.98,0-1.48,0-1.27-.02-2.59.21-3.78.29-1.53,1.32-2.77,2.75-3.31.7-.26,1.43-.3,2.22-.35l.27-.02c1.04-.06,2.08-.12,3.12-.17l1.14-.06c1.6-.09,3.25-.17,4.85-.09,4.22.22,8.03.42,11.93.56,2.4.09,4.95,1.74,4.97,4.62v.04Z"/>
        <path class="cls-1" d="M32.61,9.6c-.56-.16-1.07.01-1.6.17-.75.22-1.49.46-2.21.75-1.69.68-3.36,1.43-5.05,2.11-1.37.55-2.8.93-4.18,1.43-1.88.69-3.75,1.42-5.62,2.14-1.76.67-3.62,1.28-5.29,2.17-.91.48-2.07,1.09-1.56,2.36.31.76,1.05,1,1.75,1.26.95.35,1.9.7,2.86,1,.49.15,1.64.29,1.97.67.18.21.18.57.23.85.1.51.21,1.01.33,1.51.38,1.61,1.04,3.14,1.39,4.76.23,1.07,1.51,1.69,2.37.87.56-.54,1.12-1.07,1.67-1.62.32-.31.62-.64.92-.96.12-.12.24-.25.35-.37.3-.33.27-.3.63-.03,1.59,1.2,3.26,2.3,4.85,3.5,1.29.97,2.92.51,3.33-1.05.51-1.91.94-3.84,1.34-5.78.82-3.9,1.72-7.79,2.43-11.72.23-1.27.82-3.52-.92-4.02h0ZM15.71,27.6c-.2-.83-.39-1.66-.58-2.49-.08-.35-.16-.69-.23-1.04-.03-.16-.17-.33-.1-.47.1-.22.42-.22.63-.34,1.49-.83,2.9-1.8,4.33-2.73,1.88-1.22,3.82-2.34,5.7-3.54-.73.72-1.46,1.45-2.2,2.16-.63.61-1.36,1.08-2.03,1.63-.86.71-1.68,1.47-2.53,2.2-.46.4-.93.81-1.39,1.21-.49.43-.48,1.33-.46,1.94.04,1.38-.21,2.73-.41,4.09-.28-.87-.51-1.74-.72-2.62h0ZM19.07,29.13c-.5.5-1.01,1-1.5,1.5.22-1.58.33-3.17.52-4.75.77.64,1.55,1.26,2.33,1.88-.45.46-.9.91-1.35,1.37ZM32.85,11.18c-.23,2.58-.87,5.21-1.45,7.73-.69,3.03-1.27,6.08-1.99,9.1-.17.71-.34,1.41-.51,2.11-.11.46-.14.99-.5,1.33-.45.43-1.06.07-1.48-.24-.65-.48-1.33-.91-2.01-1.34-.61-.39-1.2-.8-1.79-1.22-.58-.42-1.03-.98-1.58-1.43-1.01-.82-2.07-1.59-3.15-2.33.7-.62,1.4-1.25,2.1-1.87.36-.32.75-.62,1.1-.94.69-.63,4.25-4.12,5.43-5.15.62-.55,1.12-1.08,1.68-1.69.63-.68.05-1.58-.97-.94-1.2.75-3.77,2.05-5.65,3.25-1.59,1.02-3.18,2.04-4.77,3.05-1.08.69-2.17,1.37-3.25,2.05-.12.08-.68-.27-.83-.33-.52-.22-1.05-.41-1.58-.61-1-.36-2.19-.54-3.12-.88-.63-.24-.8-.77-.2-1.13,1.09-.66,2.42-1.06,3.59-1.53,2.8-1.14,5.62-2.27,8.47-3.3,1.32-.48,2.68-.8,3.98-1.34,1.33-.55,2.62-1.17,3.95-1.72,1.06-.43,2.12-.83,3.22-1.16.41-.12,1.36-.21,1.3.54h0Z"/>
      </g>
    </g>
  </g>
</svg>