<?xml version="1.0" encoding="UTF-8"?>
<svg xmlns="http://www.w3.org/2000/svg" version="1.1" viewBox="0 0 42 42">
  <defs>
    <style>
      .cls-1 {
        fill: #010101;
      }

      .cls-2 {
        fill: #fff;
      }

      .cls-3 {
        fill: #fdd517;
      }
    </style>
  </defs>
  <!-- Generator: Adobe Illustrator 28.7.1, SVG Export Plug-In . SVG Version: 1.2.0 Build 142)  -->
  <g>
    <g id="Layer_1">
      <g id="x-twitter">
        <path class="cls-2" d="M41.78,25.59c.17-1.8.11-6.15-.16-7.94-.64-4.09-2-7.07-4.96-10.15-2.74-2.85-6.96-2.57-10.72-2.55-3.26.02-12.8-.58-15.74,1.03-4.72,2.58-4.87,6.77-4.57,11.86.2,3.41-.13,6.5.38,10.35.7,5.26,1.41,9.23,6.08,10.3,3.2.74,10.9-.07,14.19-.06,2.98,0,6.53-.23,9.26-1.48,3.02-1.39,5.53-3.74,6.23-11.35h0Z"/>
        <path class="cls-3" d="M40.78,24.59c.17-1.8.11-6.15-.16-7.94-.64-4.09-2-7.07-4.96-10.15-2.74-2.85-6.96-2.57-10.72-2.55-3.26.02-12.8-.58-15.74,1.03-4.72,2.58-4.87,6.77-4.57,11.86.2,3.41-.13,6.5.38,10.35.7,5.26,1.41,9.23,6.08,10.3,3.2.74,10.9-.07,14.19-.06,2.98,0,6.53-.23,9.26-1.48,3.02-1.39,5.53-3.74,6.23-11.35h0Z"/>
        <path class="cls-1" d="M40.02,22.08l-.08-1.97c-.04-.91-.09-1.83-.14-2.74-.09-1.68-.18-3.42-.21-5.14,0-.39,0-.79,0-1.18v-1.78c-.02-.41-.08-.83-.19-1.24-.1-.39-.24-.77-.42-1.14-.19-.41-.4-.76-.63-1.06-.49-.63-1.11-1.08-1.76-1.56-.66-.49-1.37-.86-2.1-1.1-.36-.12-.74-.21-1.17-.27-.1-.02-.2-.03-.3-.04-.1,0-.22-.02-.31-.03l-5.64-.25c-.31,0-.63-.02-.94,0-.23,0-.46.04-.69.06-.44.05-.85.09-1.27.06l-2.99-.15c-.28-.02-.56-.03-.84-.04h-.2c-1.35-.06-2.7-.1-4.05-.1l-6.04.1-1.05.04c-.42.03-.8.08-1.17.15-.86.17-1.63.46-2.3.86-.76.46-1.41,1.05-1.85,1.71-.45.66-.77,1.44-.94,2.26-.08.4-.13.79-.14,1.17v1.05c0,.33,0,.65,0,.97s-.02.66-.02.99l-.02,1.96c0,.56-.03,1.11-.05,1.67l-.05,1.26c-.02.31-.06.62-.11.93l-.04.27c-.04.24-.07.49-.09.73-.02.22-.02.45-.03.67v.83c0,.49.03.98,0,1.46-.06,1.17-.06,2.41-.02,4.02.03,1.33.09,2.65.16,3.97l.16,2.93c.02.4.08.81.18,1.23.39,1.5,1.3,2.85,2.62,3.9.66.51,1.37.91,2.11,1.17.4.14.82.24,1.23.29.32.04.58.05.85.07h.25c1.34.09,2.68.15,4.02.2l.86.04c.38,0,.76.03,1.23.06.52.03,1.05.05,1.59.05h.39c.77,0,1.53-.07,2.3-.12.58-.04,1.16-.08,1.75-.1,2.28-.15,4.61-.08,6.87,0l1.14.03c.68.02,1.35.03,2.04.04h1.02c.4,0,.83-.06,1.27-.16,1.64-.37,3.13-1.26,4.18-2.52.54-.65.97-1.42,1.22-2.21.13-.41.22-.83.27-1.32l.02-.24v-.18l.05-2.61c0-.37.02-.75.03-1.12,0-.28.02-.56.02-.84.04-1.32.05-2.64.05-3.97,0-.66,0-1.31-.02-1.98v-.03ZM37.76,24.5c-.05,1.15-.11,2.31-.18,3.47,0,.26-.03.53-.05.79-.03.39-.05.78-.07,1.18l-.05,2.46v.22s0,.1,0,.18c-.03.25-.08.5-.16.77-.08.24-.2.49-.34.74-.15.25-.34.48-.49.65-.16.18-.36.36-.6.54-.21.16-.45.31-.7.43-.25.13-.51.24-.77.34-.26.1-.53.16-.77.22-.26.05-.52.1-.79.12l-.98.07c-.66.03-1.32.06-1.98.08-2.38.08-4.92.12-7.99.14-1.33,0-2.66,0-3.99-.02-1.24-.03-2.51-.08-3.77-.13h-.28c-1.31-.07-2.63-.12-3.93-.19l-.34-.02c-.21,0-.41-.02-.58-.04-.23-.03-.48-.09-.73-.17-.47-.16-.95-.42-1.38-.76-.87-.68-1.51-1.61-1.75-2.56-.06-.24-.1-.47-.11-.73l-.16-2.95c-.15-3.05-.2-5.51-.15-7.75.02-.62-.04-1.24-.1-1.85l-.02-.18c-.05-.65-.07-1.3-.09-1.95,0-.51.01-1.02.03-1.54l.2-4.6c0-.22.02-.45.05-.67.02-.12.04-.23.06-.35.04-.22.09-.45.11-.67l.03-.43c0-.17.02-.34.04-.5.02-.26.07-.51.12-.76.12-.5.34-.96.63-1.35.57-.78,1.49-1.33,2.58-1.55.27-.06.55-.09.82-.11l8.46-.21c.84-.03,1.67-.05,2.51-.07.33,0,.66-.01.98-.01h3c.43.02.87.04,1.3.05l.69.02c.45.02.91.03,1.36.03l5.18.05c.14,0,.27.01.41.03.26.03.53.08.8.17.54.17,1.05.43,1.48.77.43.32.75.81,1.04,1.28.37.57.58,1.02.71,1.46.07.26.12.51.14.74l.2,2.93c.21,3.15.33,5.56.39,7.83v.39c.03.52.04,1.04.05,1.56,0,.44,0,.88-.03,1.33l-.04,1.05h0v.03Z"/>
        <path class="cls-2" d="M31.26,30.45c-.07-.16-.53-1.1-1.73-2.39-.18-.19-.64-.84-1.12-1.53-.27-.38-.55-.78-.8-1.13l-2.51-3.47c-.17-.24-.31-.48-.45-.7-.36-.58-.73-1.19-1.54-2.06l-.15-.21,1.96-2.41c.43-.53.94-1.01,1.48-1.52.46-.44.94-.89,1.41-1.4l2.24-2.48c.23-.25.2-.63-.05-.85l-.19-.17c-.25-.22-.64-.19-.87.05l-.9,1c-.08.08-1.89,1.93-2.48,2.75-.58.79-2.5,2.78-2.53,2.8l-.93,1.03-1.43-1.98c-.16-.23-.32-.4-.48-.58-.35-.4-.75-.85-1.46-2.09-1.01-1.77-2.14-3.01-2.27-3.14-.12-.15-.3-.25-.52-.25h0s-1.32.12-2.5,0c-1.16-.11-2.1-.02-2.22,0-.23,0-.44.13-.54.33-.11.2-.09.45.04.63.04.06,1.03,1.63,1.83,2.54.69.78,1.41,1.87,2,2.75l.25.38c.53.79,1.48,2.08,2.11,2.94l.23.32c.3.41.92,1.28,1.49,2.06-.33.47-1.12,1.55-1.79,2.18-.89.83-3.52,3.65-3.63,3.78l-2.09,2.32c-.13.15-.2.33-.18.53.01.19.1.37.25.5s.34.19.54.18.38-.1.51-.25c.03-.04,3.21-3.72,4.04-4.49.65-.59,2.34-2.53,3.22-3.54l.28.39s1.16,1.36,1.94,2.69c.8,1.37,2.2,3.07,2.25,3.13l1.49,2.06c.12.16.3.26.5.26.09,0,.7.07,1.42.07.39,0,.82-.02,1.21-.07,1.09-.14,2.11,0,2.12,0h.03c.24,0,.45-.13.56-.33.1-.2.09-.43-.03-.62h0Z"/>
        <path class="cls-1" d="M32.35,30.49c-.07-.16-.54-1.11-1.74-2.41-.18-.19-.64-.85-1.13-1.54-.27-.38-.55-.78-.81-1.14l-2.52-3.49c-.17-.24-.31-.48-.45-.71-.36-.59-.74-1.2-1.56-2.07l-.15-.21,1.98-2.43c.44-.53.95-1.02,1.49-1.53.46-.44.95-.89,1.41-1.41l2.26-2.5c.11-.12.16-.28.15-.44,0-.16-.08-.31-.21-.42l-.19-.17c-.26-.22-.65-.2-.87.05l-.91,1c-.08.08-1.9,1.95-2.5,2.77-.58.8-2.52,2.8-2.55,2.83l-.94,1.04-1.45-2c-.17-.23-.32-.4-.48-.59-.35-.4-.75-.85-1.47-2.11-1.01-1.78-2.16-3.03-2.28-3.16-.12-.16-.31-.25-.52-.25h0s-1.33.12-2.52,0c-1.17-.11-2.11-.02-2.24,0-.23,0-.44.13-.55.33-.11.21-.09.45.04.63.04.07,1.03,1.64,1.85,2.56.69.79,1.43,1.89,2.02,2.77l.25.38c.54.8,1.49,2.09,2.12,2.95l.24.33c.3.41.93,1.29,1.5,2.08-.34.48-1.13,1.56-1.81,2.2-.89.84-3.54,3.68-3.66,3.8l-2.11,2.34c-.27.3-.24.77.06,1.03.31.27.78.24,1.06-.07.03-.04,3.23-3.75,4.07-4.52.65-.6,2.36-2.55,3.24-3.57l.28.39s1.17,1.37,1.95,2.71c.81,1.38,2.22,3.09,2.27,3.15l1.5,2.08c.12.16.3.26.5.26.1,0,.71.07,1.43.07.4,0,.82-.02,1.22-.07,1.1-.14,2.13,0,2.13,0h.03c.24,0,.45-.13.56-.33.1-.2.09-.43-.03-.62h.04ZM30.49,30.15s-.05.08-.13.08c-.14-.02-.92-.12-1.5,0-.54.12-1.41,0-1.41,0h-.03s-.1-.03-.13-.07l-5.61-7.79s-2.3-3.05-3.02-4.19c-.73-1.16-2.54-3.54-2.62-3.63l-2.51-3.48c-.05-.07-.02-.13-.01-.16s.05-.08.14-.08h2.89s.1.03.13.06l3.25,4.5s1.47,1.92,2.78,3.85c1.32,1.95,3,4.16,3.02,4.18l4.74,6.57c.05.07.02.13.01.16h0Z"/>
      </g>
    </g>
  </g>
</svg>